<svg xmlns="http://www.w3.org/2000/svg" version="1.1" xmlns:xlink="http://www.w3.org/1999/xlink" xmlns:svgjs="http://svgjs.dev/svgjs" width="1440" height="560" preserveAspectRatio="none" viewBox="0 0 1440 560"><g mask="url(&quot;#SvgjsMask1008&quot;)" fill="none"><path d="M-97.44 407.92L-97.44 407.92" stroke="rgba(85, 92, 101, 1)" stroke-width="1.5"></path><path d="M-97.44 407.92L88.97 530.49" stroke="rgba(85, 92, 101, 1)" stroke-width="1.5"></path><path d="M-97.44 407.92L-107.1 651.99" stroke="rgba(85, 92, 101, 1)" stroke-width="1.5"></path><path d="M-97.44 407.92L52.55 647.47" stroke="rgba(85, 92, 101, 1)" stroke-width="1.5"></path><path d="M-97.44 407.92L221.42 343.44" stroke="rgba(85, 92, 101, 1)" stroke-width="1.5"></path><path d="M-107.1 651.99L-107.1 651.99" stroke="rgba(85, 92, 101, 1)" stroke-width="1.5"></path><path d="M-107.1 651.99L52.55 647.47" stroke="rgba(85, 92, 101, 1)" stroke-width="1.5"></path><path d="M-107.1 651.99L88.97 530.49" stroke="rgba(85, 92, 101, 1)" stroke-width="1.5"></path><path d="M-107.1 651.99L216.61 640.65" stroke="rgba(85, 92, 101, 1)" stroke-width="1.5"></path><path d="M-107.1 651.99L221.42 343.44" stroke="rgba(85, 92, 101, 1)" stroke-width="1.5"></path><path d="M88.97 530.49L88.97 530.49" stroke="rgba(85, 92, 101, 1)" stroke-width="1.5"></path><path d="M88.97 530.49L52.55 647.47" stroke="rgba(85, 92, 101, 1)" stroke-width="1.5"></path><path d="M88.97 530.49L216.61 640.65" stroke="rgba(85, 92, 101, 1)" stroke-width="1.5"></path><path d="M88.97 530.49L221.42 343.44" stroke="rgba(85, 92, 101, 1)" stroke-width="1.5"></path><path d="M88.97 530.49L361.71 541.24" stroke="rgba(85, 92, 101, 1)" stroke-width="1.5"></path><path d="M52.55 647.47L52.55 647.47" stroke="rgba(85, 92, 101, 1)" stroke-width="1.5"></path><path d="M221.42 343.44L221.42 343.44" stroke="rgba(85, 92, 101, 1)" stroke-width="1.5"></path><path d="M221.42 343.44L397.55 339.84" stroke="rgba(85, 92, 101, 1)" stroke-width="1.5"></path><path d="M216.61 640.65L216.61 640.65" stroke="rgba(85, 92, 101, 1)" stroke-width="1.5"></path><path d="M216.61 640.65L52.55 647.47" stroke="rgba(85, 92, 101, 1)" stroke-width="1.5"></path><path d="M216.61 640.65L361.71 541.24" stroke="rgba(85, 92, 101, 1)" stroke-width="1.5"></path><path d="M216.61 640.65L393.46 700.76" stroke="rgba(85, 92, 101, 1)" stroke-width="1.5"></path><path d="M216.61 640.65L493.36 672.73" stroke="rgba(85, 92, 101, 1)" stroke-width="1.5"></path><path d="M216.61 640.65L221.42 343.44" stroke="rgba(85, 92, 101, 1)" stroke-width="1.5"></path><path d="M397.55 339.84L397.55 339.84" stroke="rgba(85, 92, 101, 1)" stroke-width="1.5"></path><path d="M397.55 339.84L513.93 391.53" stroke="rgba(85, 92, 101, 1)" stroke-width="1.5"></path><path d="M397.55 339.84L361.71 541.24" stroke="rgba(85, 92, 101, 1)" stroke-width="1.5"></path><path d="M397.55 339.84L516.8 554.86" stroke="rgba(85, 92, 101, 1)" stroke-width="1.5"></path><path d="M397.55 339.84L682.34 243.12" stroke="rgba(85, 92, 101, 1)" stroke-width="1.5"></path><path d="M397.55 339.84L706.14 395.96" stroke="rgba(85, 92, 101, 1)" stroke-width="1.5"></path><path d="M361.71 541.24L361.71 541.24" stroke="rgba(85, 92, 101, 1)" stroke-width="1.5"></path><path d="M361.71 541.24L516.8 554.86" stroke="rgba(85, 92, 101, 1)" stroke-width="1.5"></path><path d="M361.71 541.24L393.46 700.76" stroke="rgba(85, 92, 101, 1)" stroke-width="1.5"></path><path d="M393.46 700.76L393.46 700.76" stroke="rgba(85, 92, 101, 1)" stroke-width="1.5"></path><path d="M393.46 700.76L493.36 672.73" stroke="rgba(85, 92, 101, 1)" stroke-width="1.5"></path><path d="M393.46 700.76L516.8 554.86" stroke="rgba(85, 92, 101, 1)" stroke-width="1.5"></path><path d="M513.93 391.53L513.93 391.53" stroke="rgba(85, 92, 101, 1)" stroke-width="1.5"></path><path d="M513.93 391.53L516.8 554.86" stroke="rgba(85, 92, 101, 1)" stroke-width="1.5"></path><path d="M513.93 391.53L706.14 395.96" stroke="rgba(85, 92, 101, 1)" stroke-width="1.5"></path><path d="M516.8 554.86L516.8 554.86" stroke="rgba(85, 92, 101, 1)" stroke-width="1.5"></path><path d="M516.8 554.86L493.36 672.73" stroke="rgba(85, 92, 101, 1)" stroke-width="1.5"></path><path d="M516.8 554.86L648.32 643.47" stroke="rgba(85, 92, 101, 1)" stroke-width="1.5"></path><path d="M493.36 672.73L493.36 672.73" stroke="rgba(85, 92, 101, 1)" stroke-width="1.5"></path><path d="M493.36 672.73L648.32 643.47" stroke="rgba(85, 92, 101, 1)" stroke-width="1.5"></path><path d="M493.36 672.73L361.71 541.24" stroke="rgba(85, 92, 101, 1)" stroke-width="1.5"></path><path d="M682.34 243.12L682.34 243.12" stroke="rgba(85, 92, 101, 1)" stroke-width="1.5"></path><path d="M682.34 243.12L706.14 395.96" stroke="rgba(85, 92, 101, 1)" stroke-width="1.5"></path><path d="M682.34 243.12L860.49 206.17" stroke="rgba(85, 92, 101, 1)" stroke-width="1.5"></path><path d="M682.34 243.12L513.93 391.53" stroke="rgba(85, 92, 101, 1)" stroke-width="1.5"></path><path d="M682.34 243.12L852.91 410.72" stroke="rgba(85, 92, 101, 1)" stroke-width="1.5"></path><path d="M682.34 243.12L948.79 363.29" stroke="rgba(85, 92, 101, 1)" stroke-width="1.5"></path><path d="M706.14 395.96L706.14 395.96" stroke="rgba(85, 92, 101, 1)" stroke-width="1.5"></path><path d="M706.14 395.96L852.91 410.72" stroke="rgba(85, 92, 101, 1)" stroke-width="1.5"></path><path d="M706.14 395.96L849.67 511.12" stroke="rgba(85, 92, 101, 1)" stroke-width="1.5"></path><path d="M648.32 643.47L648.32 643.47" stroke="rgba(85, 92, 101, 1)" stroke-width="1.5"></path><path d="M860.49 206.17L860.49 206.17" stroke="rgba(85, 92, 101, 1)" stroke-width="1.5"></path><path d="M860.49 206.17L1002.65 216.54" stroke="rgba(85, 92, 101, 1)" stroke-width="1.5"></path><path d="M860.49 206.17L948.79 363.29" stroke="rgba(85, 92, 101, 1)" stroke-width="1.5"></path><path d="M860.49 206.17L852.91 410.72" stroke="rgba(85, 92, 101, 1)" stroke-width="1.5"></path><path d="M860.49 206.17L1004.7 58.48" stroke="rgba(85, 92, 101, 1)" stroke-width="1.5"></path><path d="M860.49 206.17L706.14 395.96" stroke="rgba(85, 92, 101, 1)" stroke-width="1.5"></path><path d="M852.91 410.72L852.91 410.72" stroke="rgba(85, 92, 101, 1)" stroke-width="1.5"></path><path d="M852.91 410.72L849.67 511.12" stroke="rgba(85, 92, 101, 1)" stroke-width="1.5"></path><path d="M852.91 410.72L948.79 363.29" stroke="rgba(85, 92, 101, 1)" stroke-width="1.5"></path><path d="M852.91 410.72L1010.93 512.98" stroke="rgba(85, 92, 101, 1)" stroke-width="1.5"></path><path d="M849.67 511.12L849.67 511.12" stroke="rgba(85, 92, 101, 1)" stroke-width="1.5"></path><path d="M849.67 511.12L827.34 666.69" stroke="rgba(85, 92, 101, 1)" stroke-width="1.5"></path><path d="M849.67 511.12L1010.93 512.98" stroke="rgba(85, 92, 101, 1)" stroke-width="1.5"></path><path d="M827.34 666.69L827.34 666.69" stroke="rgba(85, 92, 101, 1)" stroke-width="1.5"></path><path d="M827.34 666.69L949.13 711.49" stroke="rgba(85, 92, 101, 1)" stroke-width="1.5"></path><path d="M827.34 666.69L648.32 643.47" stroke="rgba(85, 92, 101, 1)" stroke-width="1.5"></path><path d="M827.34 666.69L1010.93 512.98" stroke="rgba(85, 92, 101, 1)" stroke-width="1.5"></path><path d="M966.77 -76.59L966.77 -76.59" stroke="rgba(85, 92, 101, 1)" stroke-width="1.5"></path><path d="M966.77 -76.59L1103.8 -100.08" stroke="rgba(85, 92, 101, 1)" stroke-width="1.5"></path><path d="M966.77 -76.59L1004.7 58.48" stroke="rgba(85, 92, 101, 1)" stroke-width="1.5"></path><path d="M966.77 -76.59L1151.76 70.64" stroke="rgba(85, 92, 101, 1)" stroke-width="1.5"></path><path d="M966.77 -76.59L1002.65 216.54" stroke="rgba(85, 92, 101, 1)" stroke-width="1.5"></path><path d="M966.77 -76.59L860.49 206.17" stroke="rgba(85, 92, 101, 1)" stroke-width="1.5"></path><path d="M1004.7 58.48L1004.7 58.48" stroke="rgba(85, 92, 101, 1)" stroke-width="1.5"></path><path d="M1004.7 58.48L1151.76 70.64" stroke="rgba(85, 92, 101, 1)" stroke-width="1.5"></path><path d="M1002.65 216.54L1002.65 216.54" stroke="rgba(85, 92, 101, 1)" stroke-width="1.5"></path><path d="M1002.65 216.54L1137.86 246.63" stroke="rgba(85, 92, 101, 1)" stroke-width="1.5"></path><path d="M1002.65 216.54L948.79 363.29" stroke="rgba(85, 92, 101, 1)" stroke-width="1.5"></path><path d="M1002.65 216.54L1004.7 58.48" stroke="rgba(85, 92, 101, 1)" stroke-width="1.5"></path><path d="M948.79 363.29L948.79 363.29" stroke="rgba(85, 92, 101, 1)" stroke-width="1.5"></path><path d="M948.79 363.29L1010.93 512.98" stroke="rgba(85, 92, 101, 1)" stroke-width="1.5"></path><path d="M948.79 363.29L849.67 511.12" stroke="rgba(85, 92, 101, 1)" stroke-width="1.5"></path><path d="M1010.93 512.98L1010.93 512.98" stroke="rgba(85, 92, 101, 1)" stroke-width="1.5"></path><path d="M1010.93 512.98L1152.48 530.17" stroke="rgba(85, 92, 101, 1)" stroke-width="1.5"></path><path d="M1010.93 512.98L1128.9 379.74" stroke="rgba(85, 92, 101, 1)" stroke-width="1.5"></path><path d="M1010.93 512.98L1104 669.37" stroke="rgba(85, 92, 101, 1)" stroke-width="1.5"></path><path d="M949.13 711.49L949.13 711.49" stroke="rgba(85, 92, 101, 1)" stroke-width="1.5"></path><path d="M949.13 711.49L1104 669.37" stroke="rgba(85, 92, 101, 1)" stroke-width="1.5"></path><path d="M949.13 711.49L1010.93 512.98" stroke="rgba(85, 92, 101, 1)" stroke-width="1.5"></path><path d="M949.13 711.49L849.67 511.12" stroke="rgba(85, 92, 101, 1)" stroke-width="1.5"></path><path d="M1103.8 -100.08L1103.8 -100.08" stroke="rgba(85, 92, 101, 1)" stroke-width="1.5"></path><path d="M1103.8 -100.08L1277.1 -110.01" stroke="rgba(85, 92, 101, 1)" stroke-width="1.5"></path><path d="M1151.76 70.64L1151.76 70.64" stroke="rgba(85, 92, 101, 1)" stroke-width="1.5"></path><path d="M1151.76 70.64L1294.54 55.32" stroke="rgba(85, 92, 101, 1)" stroke-width="1.5"></path><path d="M1137.86 246.63L1137.86 246.63" stroke="rgba(85, 92, 101, 1)" stroke-width="1.5"></path><path d="M1137.86 246.63L1128.9 379.74" stroke="rgba(85, 92, 101, 1)" stroke-width="1.5"></path><path d="M1137.86 246.63L1151.76 70.64" stroke="rgba(85, 92, 101, 1)" stroke-width="1.5"></path><path d="M1137.86 246.63L1311.94 205.74" stroke="rgba(85, 92, 101, 1)" stroke-width="1.5"></path><path d="M1128.9 379.74L1128.9 379.74" stroke="rgba(85, 92, 101, 1)" stroke-width="1.5"></path><path d="M1128.9 379.74L1152.48 530.17" stroke="rgba(85, 92, 101, 1)" stroke-width="1.5"></path><path d="M1128.9 379.74L948.79 363.29" stroke="rgba(85, 92, 101, 1)" stroke-width="1.5"></path><path d="M1128.9 379.74L1293.81 499.37" stroke="rgba(85, 92, 101, 1)" stroke-width="1.5"></path><path d="M1152.48 530.17L1152.48 530.17" stroke="rgba(85, 92, 101, 1)" stroke-width="1.5"></path><path d="M1152.48 530.17L1293.81 499.37" stroke="rgba(85, 92, 101, 1)" stroke-width="1.5"></path><path d="M1152.48 530.17L1104 669.37" stroke="rgba(85, 92, 101, 1)" stroke-width="1.5"></path><path d="M1152.48 530.17L1271.21 656.34" stroke="rgba(85, 92, 101, 1)" stroke-width="1.5"></path><path d="M1152.48 530.17L948.79 363.29" stroke="rgba(85, 92, 101, 1)" stroke-width="1.5"></path><path d="M1104 669.37L1104 669.37" stroke="rgba(85, 92, 101, 1)" stroke-width="1.5"></path><path d="M1104 669.37L1271.21 656.34" stroke="rgba(85, 92, 101, 1)" stroke-width="1.5"></path><path d="M1104 669.37L1293.81 499.37" stroke="rgba(85, 92, 101, 1)" stroke-width="1.5"></path><path d="M1104 669.37L827.34 666.69" stroke="rgba(85, 92, 101, 1)" stroke-width="1.5"></path><path d="M1277.1 -110.01L1277.1 -110.01" stroke="rgba(85, 92, 101, 1)" stroke-width="1.5"></path><path d="M1277.1 -110.01L1403.69 -62.17" stroke="rgba(85, 92, 101, 1)" stroke-width="1.5"></path><path d="M1277.1 -110.01L1294.54 55.32" stroke="rgba(85, 92, 101, 1)" stroke-width="1.5"></path><path d="M1277.1 -110.01L1388.87 79.23" stroke="rgba(85, 92, 101, 1)" stroke-width="1.5"></path><path d="M1277.1 -110.01L1151.76 70.64" stroke="rgba(85, 92, 101, 1)" stroke-width="1.5"></path><path d="M1294.54 55.32L1294.54 55.32" stroke="rgba(85, 92, 101, 1)" stroke-width="1.5"></path><path d="M1294.54 55.32L1388.87 79.23" stroke="rgba(85, 92, 101, 1)" stroke-width="1.5"></path><path d="M1311.94 205.74L1311.94 205.74" stroke="rgba(85, 92, 101, 1)" stroke-width="1.5"></path><path d="M1311.94 205.74L1456.2 201.15" stroke="rgba(85, 92, 101, 1)" stroke-width="1.5"></path><path d="M1311.94 205.74L1388.87 79.23" stroke="rgba(85, 92, 101, 1)" stroke-width="1.5"></path><path d="M1311.94 205.74L1294.54 55.32" stroke="rgba(85, 92, 101, 1)" stroke-width="1.5"></path><path d="M1311.94 205.74L1429.49 345.28" stroke="rgba(85, 92, 101, 1)" stroke-width="1.5"></path><path d="M1311.94 205.74L1151.76 70.64" stroke="rgba(85, 92, 101, 1)" stroke-width="1.5"></path><path d="M1293.81 499.37L1293.81 499.37" stroke="rgba(85, 92, 101, 1)" stroke-width="1.5"></path><path d="M1293.81 499.37L1271.21 656.34" stroke="rgba(85, 92, 101, 1)" stroke-width="1.5"></path><path d="M1293.81 499.37L1429.49 345.28" stroke="rgba(85, 92, 101, 1)" stroke-width="1.5"></path><path d="M1271.21 656.34L1271.21 656.34" stroke="rgba(85, 92, 101, 1)" stroke-width="1.5"></path><path d="M1271.21 656.34L1010.93 512.98" stroke="rgba(85, 92, 101, 1)" stroke-width="1.5"></path><path d="M1271.21 656.34L1581.15 667.36" stroke="rgba(85, 92, 101, 1)" stroke-width="1.5"></path><path d="M1403.69 -62.17L1403.69 -62.17" stroke="rgba(85, 92, 101, 1)" stroke-width="1.5"></path><path d="M1403.69 -62.17L1388.87 79.23" stroke="rgba(85, 92, 101, 1)" stroke-width="1.5"></path><path d="M1388.87 79.23L1388.87 79.23" stroke="rgba(85, 92, 101, 1)" stroke-width="1.5"></path><path d="M1388.87 79.23L1456.2 201.15" stroke="rgba(85, 92, 101, 1)" stroke-width="1.5"></path><path d="M1388.87 79.23L1555.49 59.47" stroke="rgba(85, 92, 101, 1)" stroke-width="1.5"></path><path d="M1456.2 201.15L1456.2 201.15" stroke="rgba(85, 92, 101, 1)" stroke-width="1.5"></path><path d="M1456.2 201.15L1568.98 243.47" stroke="rgba(85, 92, 101, 1)" stroke-width="1.5"></path><path d="M1456.2 201.15L1429.49 345.28" stroke="rgba(85, 92, 101, 1)" stroke-width="1.5"></path><path d="M1429.49 345.28L1429.49 345.28" stroke="rgba(85, 92, 101, 1)" stroke-width="1.5"></path><path d="M1429.49 345.28L1558.35 360.2" stroke="rgba(85, 92, 101, 1)" stroke-width="1.5"></path><path d="M1607.63 -72.9L1607.63 -72.9" stroke="rgba(85, 92, 101, 1)" stroke-width="1.5"></path><path d="M1607.63 -72.9L1555.49 59.47" stroke="rgba(85, 92, 101, 1)" stroke-width="1.5"></path><path d="M1607.63 -72.9L1403.69 -62.17" stroke="rgba(85, 92, 101, 1)" stroke-width="1.5"></path><path d="M1555.49 59.47L1555.49 59.47" stroke="rgba(85, 92, 101, 1)" stroke-width="1.5"></path><path d="M1555.49 59.47L1456.2 201.15" stroke="rgba(85, 92, 101, 1)" stroke-width="1.5"></path><path d="M1555.49 59.47L1568.98 243.47" stroke="rgba(85, 92, 101, 1)" stroke-width="1.5"></path><path d="M1555.49 59.47L1403.69 -62.17" stroke="rgba(85, 92, 101, 1)" stroke-width="1.5"></path><path d="M1555.49 59.47L1294.54 55.32" stroke="rgba(85, 92, 101, 1)" stroke-width="1.5"></path><path d="M1568.98 243.47L1568.98 243.47" stroke="rgba(85, 92, 101, 1)" stroke-width="1.5"></path><path d="M1568.98 243.47L1558.35 360.2" stroke="rgba(85, 92, 101, 1)" stroke-width="1.5"></path><path d="M1568.98 243.47L1429.49 345.28" stroke="rgba(85, 92, 101, 1)" stroke-width="1.5"></path><path d="M1558.35 360.2L1558.35 360.2" stroke="rgba(85, 92, 101, 1)" stroke-width="1.5"></path><path d="M1558.35 360.2L1589.72 544.96" stroke="rgba(85, 92, 101, 1)" stroke-width="1.5"></path><path d="M1558.35 360.2L1456.2 201.15" stroke="rgba(85, 92, 101, 1)" stroke-width="1.5"></path><path d="M1558.35 360.2L1311.94 205.74" stroke="rgba(85, 92, 101, 1)" stroke-width="1.5"></path><path d="M1589.72 544.96L1589.72 544.96" stroke="rgba(85, 92, 101, 1)" stroke-width="1.5"></path><path d="M1589.72 544.96L1581.15 667.36" stroke="rgba(85, 92, 101, 1)" stroke-width="1.5"></path><path d="M1581.15 667.36L1581.15 667.36" stroke="rgba(85, 92, 101, 1)" stroke-width="1.5"></path><path d="M1581.15 667.36L1558.35 360.2" stroke="rgba(85, 92, 101, 1)" stroke-width="1.5"></path><path d="M1581.15 667.36L1293.81 499.37" stroke="rgba(85, 92, 101, 1)" stroke-width="1.5"></path><circle r="5" cx="-97.44" cy="407.92" fill="rgba(85, 92, 101, 1)"></circle><circle r="5" cx="-107.1" cy="651.99" fill="rgba(85, 92, 101, 1)"></circle><circle r="5" cx="88.97" cy="530.49" fill="rgba(85, 92, 101, 1)"></circle><circle r="5" cx="52.55" cy="647.47" fill="rgba(85, 92, 101, 1)"></circle><circle r="5" cx="221.42" cy="343.44" fill="rgba(85, 92, 101, 1)"></circle><circle r="5" cx="216.61" cy="640.65" fill="rgba(85, 92, 101, 1)"></circle><circle r="5" cx="397.55" cy="339.84" fill="rgba(85, 92, 101, 1)"></circle><circle r="5" cx="361.71" cy="541.24" fill="rgba(85, 92, 101, 1)"></circle><circle r="5" cx="393.46" cy="700.76" fill="rgba(85, 92, 101, 1)"></circle><circle r="5" cx="513.93" cy="391.53" fill="rgba(85, 92, 101, 1)"></circle><circle r="5" cx="516.8" cy="554.86" fill="rgba(85, 92, 101, 1)"></circle><circle r="5" cx="493.36" cy="672.73" fill="rgba(85, 92, 101, 1)"></circle><circle r="5" cx="682.34" cy="243.12" fill="rgba(85, 92, 101, 1)"></circle><circle r="5" cx="706.14" cy="395.96" fill="rgba(85, 92, 101, 1)"></circle><circle r="5" cx="648.32" cy="643.47" fill="rgba(85, 92, 101, 1)"></circle><circle r="5" cx="860.49" cy="206.17" fill="rgba(85, 92, 101, 1)"></circle><circle r="5" cx="852.91" cy="410.72" fill="rgba(85, 92, 101, 1)"></circle><circle r="5" cx="849.67" cy="511.12" fill="rgba(85, 92, 101, 1)"></circle><circle r="5" cx="827.34" cy="666.69" fill="rgba(85, 92, 101, 1)"></circle><circle r="5" cx="966.77" cy="-76.59" fill="rgba(85, 92, 101, 1)"></circle><circle r="5" cx="1004.7" cy="58.48" fill="rgba(85, 92, 101, 1)"></circle><circle r="5" cx="1002.65" cy="216.54" fill="rgba(85, 92, 101, 1)"></circle><circle r="5" cx="948.79" cy="363.29" fill="rgba(85, 92, 101, 1)"></circle><circle r="5" cx="1010.93" cy="512.98" fill="rgba(85, 92, 101, 1)"></circle><circle r="5" cx="949.13" cy="711.49" fill="rgba(85, 92, 101, 1)"></circle><circle r="5" cx="1103.8" cy="-100.08" fill="rgba(85, 92, 101, 1)"></circle><circle r="5" cx="1151.76" cy="70.64" fill="rgba(85, 92, 101, 1)"></circle><circle r="5" cx="1137.86" cy="246.63" fill="rgba(85, 92, 101, 1)"></circle><circle r="5" cx="1128.9" cy="379.74" fill="rgba(85, 92, 101, 1)"></circle><circle r="5" cx="1152.48" cy="530.17" fill="rgba(85, 92, 101, 1)"></circle><circle r="5" cx="1104" cy="669.37" fill="rgba(85, 92, 101, 1)"></circle><circle r="5" cx="1277.1" cy="-110.01" fill="rgba(85, 92, 101, 1)"></circle><circle r="5" cx="1294.54" cy="55.32" fill="rgba(85, 92, 101, 1)"></circle><circle r="5" cx="1311.94" cy="205.74" fill="rgba(85, 92, 101, 1)"></circle><circle r="5" cx="1293.81" cy="499.37" fill="rgba(85, 92, 101, 1)"></circle><circle r="5" cx="1271.21" cy="656.34" fill="rgba(85, 92, 101, 1)"></circle><circle r="5" cx="1403.69" cy="-62.17" fill="rgba(85, 92, 101, 1)"></circle><circle r="5" cx="1388.87" cy="79.23" fill="rgba(85, 92, 101, 1)"></circle><circle r="5" cx="1456.2" cy="201.15" fill="rgba(85, 92, 101, 1)"></circle><circle r="5" cx="1429.49" cy="345.28" fill="rgba(85, 92, 101, 1)"></circle><circle r="5" cx="1607.63" cy="-72.9" fill="rgba(85, 92, 101, 1)"></circle><circle r="5" cx="1555.49" cy="59.47" fill="rgba(85, 92, 101, 1)"></circle><circle r="5" cx="1568.98" cy="243.47" fill="rgba(85, 92, 101, 1)"></circle><circle r="5" cx="1558.35" cy="360.2" fill="rgba(85, 92, 101, 1)"></circle><circle r="5" cx="1589.72" cy="544.96" fill="rgba(85, 92, 101, 1)"></circle><circle r="5" cx="1581.15" cy="667.36" fill="rgba(85, 92, 101, 1)"></circle><path d="M1275.92 192.85L1275.92 192.85" stroke="hsl(237.5, 79.1%, 83.6%)" stroke-width="1.5"></path><path d="M1275.92 192.85L1303.3 95.77" stroke="hsl(237.5, 79.1%, 83.6%)" stroke-width="1.5"></path><path d="M1275.92 192.85L1146.13 246.54" stroke="hsl(237.5, 79.1%, 83.6%)" stroke-width="1.5"></path><path d="M1282.45 343.81L1282.45 343.81" stroke="hsl(237.5, 79.1%, 83.6%)" stroke-width="1.5"></path><path d="M1282.45 343.81L1414.63 384.28" stroke="hsl(237.5, 79.1%, 83.6%)" stroke-width="1.5"></path><path d="M1282.45 343.81L1275.92 192.85" stroke="hsl(237.5, 79.1%, 83.6%)" stroke-width="1.5"></path><path d="M1282.45 343.81L1125.39 340.73" stroke="hsl(237.5, 79.1%, 83.6%)" stroke-width="1.5"></path><path d="M1282.45 343.81L1146.13 246.54" stroke="hsl(237.5, 79.1%, 83.6%)" stroke-width="1.5"></path><path d="M1282.45 343.81L1251.41 512.34" stroke="hsl(237.5, 79.1%, 83.6%)" stroke-width="1.5"></path><path d="M1282.45 343.81L1437.86 215" stroke="hsl(237.5, 79.1%, 83.6%)" stroke-width="1.5"></path><path d="M1411.2 -56.84L1411.2 -56.84" stroke="hsl(237.5, 79.1%, 83.6%)" stroke-width="1.5"></path><path d="M1411.2 -56.84L1439.28 59.93" stroke="hsl(237.5, 79.1%, 83.6%)" stroke-width="1.5"></path><path d="M1411.2 -56.84L1280.21 -72.98" stroke="hsl(237.5, 79.1%, 83.6%)" stroke-width="1.5"></path><path d="M74.98 511.91L74.98 511.91" stroke="hsl(237.5, 79.1%, 83.6%)" stroke-width="1.5"></path><path d="M74.98 511.91L106.83 644.81" stroke="hsl(237.5, 79.1%, 83.6%)" stroke-width="1.5"></path><path d="M74.98 511.91L221.56 490.46" stroke="hsl(237.5, 79.1%, 83.6%)" stroke-width="1.5"></path><path d="M74.98 511.91L200.01 655.32" stroke="hsl(237.5, 79.1%, 83.6%)" stroke-width="1.5"></path><path d="M74.98 511.91L348.09 539.23" stroke="hsl(237.5, 79.1%, 83.6%)" stroke-width="1.5"></path><path d="M74.98 511.91L373.87 652.74" stroke="hsl(237.5, 79.1%, 83.6%)" stroke-width="1.5"></path><path d="M106.83 644.81L106.83 644.81" stroke="hsl(237.5, 79.1%, 83.6%)" stroke-width="1.5"></path><path d="M106.83 644.81L200.01 655.32" stroke="hsl(237.5, 79.1%, 83.6%)" stroke-width="1.5"></path><path d="M221.56 490.46L221.56 490.46" stroke="hsl(237.5, 79.1%, 83.6%)" stroke-width="1.5"></path><path d="M221.56 490.46L348.09 539.23" stroke="hsl(237.5, 79.1%, 83.6%)" stroke-width="1.5"></path><path d="M200.01 655.32L200.01 655.32" stroke="hsl(237.5, 79.1%, 83.6%)" stroke-width="1.5"></path><path d="M200.01 655.32L221.56 490.46" stroke="hsl(237.5, 79.1%, 83.6%)" stroke-width="1.5"></path><path d="M200.01 655.32L373.87 652.74" stroke="hsl(237.5, 79.1%, 83.6%)" stroke-width="1.5"></path><path d="M200.01 655.32L348.09 539.23" stroke="hsl(237.5, 79.1%, 83.6%)" stroke-width="1.5"></path><path d="M348.09 539.23L348.09 539.23" stroke="hsl(237.5, 79.1%, 83.6%)" stroke-width="1.5"></path><path d="M348.09 539.23L373.87 652.74" stroke="hsl(237.5, 79.1%, 83.6%)" stroke-width="1.5"></path><path d="M348.09 539.23L487.86 508.64" stroke="hsl(237.5, 79.1%, 83.6%)" stroke-width="1.5"></path><path d="M348.09 539.23L106.83 644.81" stroke="hsl(237.5, 79.1%, 83.6%)" stroke-width="1.5"></path><path d="M373.87 652.74L373.87 652.74" stroke="hsl(237.5, 79.1%, 83.6%)" stroke-width="1.5"></path><path d="M373.87 652.74L487.86 508.64" stroke="hsl(237.5, 79.1%, 83.6%)" stroke-width="1.5"></path><path d="M373.87 652.74L562.25 706.63" stroke="hsl(237.5, 79.1%, 83.6%)" stroke-width="1.5"></path><path d="M487.86 508.64L487.86 508.64" stroke="hsl(237.5, 79.1%, 83.6%)" stroke-width="1.5"></path><path d="M487.86 508.64L645.25 515.62" stroke="hsl(237.5, 79.1%, 83.6%)" stroke-width="1.5"></path><path d="M487.86 508.64L562.25 706.63" stroke="hsl(237.5, 79.1%, 83.6%)" stroke-width="1.5"></path><path d="M562.25 706.63L562.25 706.63" stroke="hsl(237.5, 79.1%, 83.6%)" stroke-width="1.5"></path><path d="M562.25 706.63L680.82 655.05" stroke="hsl(237.5, 79.1%, 83.6%)" stroke-width="1.5"></path><path d="M562.25 706.63L645.25 515.62" stroke="hsl(237.5, 79.1%, 83.6%)" stroke-width="1.5"></path><path d="M669.38 385.97L669.38 385.97" stroke="hsl(237.5, 79.1%, 83.6%)" stroke-width="1.5"></path><path d="M669.38 385.97L645.25 515.62" stroke="hsl(237.5, 79.1%, 83.6%)" stroke-width="1.5"></path><path d="M669.38 385.97L861.79 408.37" stroke="hsl(237.5, 79.1%, 83.6%)" stroke-width="1.5"></path><path d="M669.38 385.97L487.86 508.64" stroke="hsl(237.5, 79.1%, 83.6%)" stroke-width="1.5"></path><path d="M669.38 385.97L680.82 655.05" stroke="hsl(237.5, 79.1%, 83.6%)" stroke-width="1.5"></path><path d="M669.38 385.97L971.6 261.77" stroke="hsl(237.5, 79.1%, 83.6%)" stroke-width="1.5"></path><path d="M669.38 385.97L832.2 672.5" stroke="hsl(237.5, 79.1%, 83.6%)" stroke-width="1.5"></path><path d="M645.25 515.62L645.25 515.62" stroke="hsl(237.5, 79.1%, 83.6%)" stroke-width="1.5"></path><path d="M645.25 515.62L680.82 655.05" stroke="hsl(237.5, 79.1%, 83.6%)" stroke-width="1.5"></path><path d="M680.82 655.05L680.82 655.05" stroke="hsl(237.5, 79.1%, 83.6%)" stroke-width="1.5"></path><path d="M861.79 408.37L861.79 408.37" stroke="hsl(237.5, 79.1%, 83.6%)" stroke-width="1.5"></path><path d="M861.79 408.37L971.6 261.77" stroke="hsl(237.5, 79.1%, 83.6%)" stroke-width="1.5"></path><path d="M832.2 672.5L832.2 672.5" stroke="hsl(237.5, 79.1%, 83.6%)" stroke-width="1.5"></path><path d="M832.2 672.5L950.84 684.3" stroke="hsl(237.5, 79.1%, 83.6%)" stroke-width="1.5"></path><path d="M832.2 672.5L680.82 655.05" stroke="hsl(237.5, 79.1%, 83.6%)" stroke-width="1.5"></path><path d="M971.6 261.77L971.6 261.77" stroke="hsl(237.5, 79.1%, 83.6%)" stroke-width="1.5"></path><path d="M971.6 261.77L1125.39 340.73" stroke="hsl(237.5, 79.1%, 83.6%)" stroke-width="1.5"></path><path d="M971.6 261.77L1146.13 246.54" stroke="hsl(237.5, 79.1%, 83.6%)" stroke-width="1.5"></path><path d="M950.84 684.3L950.84 684.3" stroke="hsl(237.5, 79.1%, 83.6%)" stroke-width="1.5"></path><path d="M950.84 684.3L1105.71 711.94" stroke="hsl(237.5, 79.1%, 83.6%)" stroke-width="1.5"></path><path d="M950.84 684.3L1151.93 512.83" stroke="hsl(237.5, 79.1%, 83.6%)" stroke-width="1.5"></path><path d="M950.84 684.3L680.82 655.05" stroke="hsl(237.5, 79.1%, 83.6%)" stroke-width="1.5"></path><path d="M950.84 684.3L861.79 408.37" stroke="hsl(237.5, 79.1%, 83.6%)" stroke-width="1.5"></path><path d="M1146.13 246.54L1146.13 246.54" stroke="hsl(237.5, 79.1%, 83.6%)" stroke-width="1.5"></path><path d="M1146.13 246.54L1125.39 340.73" stroke="hsl(237.5, 79.1%, 83.6%)" stroke-width="1.5"></path><path d="M1146.13 246.54L1303.3 95.77" stroke="hsl(237.5, 79.1%, 83.6%)" stroke-width="1.5"></path><path d="M1146.13 246.54L1151.93 512.83" stroke="hsl(237.5, 79.1%, 83.6%)" stroke-width="1.5"></path><path d="M1125.39 340.73L1125.39 340.73" stroke="hsl(237.5, 79.1%, 83.6%)" stroke-width="1.5"></path><path d="M1151.93 512.83L1151.93 512.83" stroke="hsl(237.5, 79.1%, 83.6%)" stroke-width="1.5"></path><path d="M1151.93 512.83L1251.41 512.34" stroke="hsl(237.5, 79.1%, 83.6%)" stroke-width="1.5"></path><path d="M1105.71 711.94L1105.71 711.94" stroke="hsl(237.5, 79.1%, 83.6%)" stroke-width="1.5"></path><path d="M1280.21 -72.98L1280.21 -72.98" stroke="hsl(237.5, 79.1%, 83.6%)" stroke-width="1.5"></path><path d="M1303.3 95.77L1303.3 95.77" stroke="hsl(237.5, 79.1%, 83.6%)" stroke-width="1.5"></path><path d="M1303.3 95.77L1439.28 59.93" stroke="hsl(237.5, 79.1%, 83.6%)" stroke-width="1.5"></path><path d="M1303.3 95.77L1280.21 -72.98" stroke="hsl(237.5, 79.1%, 83.6%)" stroke-width="1.5"></path><path d="M1303.3 95.77L1437.86 215" stroke="hsl(237.5, 79.1%, 83.6%)" stroke-width="1.5"></path><path d="M1251.41 512.34L1251.41 512.34" stroke="hsl(237.5, 79.1%, 83.6%)" stroke-width="1.5"></path><path d="M1251.41 512.34L1311 654.24" stroke="hsl(237.5, 79.1%, 83.6%)" stroke-width="1.5"></path><path d="M1251.41 512.34L1430.74 562.09" stroke="hsl(237.5, 79.1%, 83.6%)" stroke-width="1.5"></path><path d="M1251.41 512.34L1414.63 384.28" stroke="hsl(237.5, 79.1%, 83.6%)" stroke-width="1.5"></path><path d="M1251.41 512.34L1125.39 340.73" stroke="hsl(237.5, 79.1%, 83.6%)" stroke-width="1.5"></path><path d="M1311 654.24L1311 654.24" stroke="hsl(237.5, 79.1%, 83.6%)" stroke-width="1.5"></path><path d="M1311 654.24L1430.74 562.09" stroke="hsl(237.5, 79.1%, 83.6%)" stroke-width="1.5"></path><path d="M1439.28 59.93L1439.28 59.93" stroke="hsl(237.5, 79.1%, 83.6%)" stroke-width="1.5"></path><path d="M1439.28 59.93L1551.65 102.96" stroke="hsl(237.5, 79.1%, 83.6%)" stroke-width="1.5"></path><path d="M1437.86 215L1437.86 215" stroke="hsl(237.5, 79.1%, 83.6%)" stroke-width="1.5"></path><path d="M1437.86 215L1576.87 221.74" stroke="hsl(237.5, 79.1%, 83.6%)" stroke-width="1.5"></path><path d="M1437.86 215L1439.28 59.93" stroke="hsl(237.5, 79.1%, 83.6%)" stroke-width="1.5"></path><path d="M1437.86 215L1551.65 102.96" stroke="hsl(237.5, 79.1%, 83.6%)" stroke-width="1.5"></path><path d="M1437.86 215L1275.92 192.85" stroke="hsl(237.5, 79.1%, 83.6%)" stroke-width="1.5"></path><path d="M1437.86 215L1414.63 384.28" stroke="hsl(237.5, 79.1%, 83.6%)" stroke-width="1.5"></path><path d="M1414.63 384.28L1414.63 384.28" stroke="hsl(237.5, 79.1%, 83.6%)" stroke-width="1.5"></path><path d="M1414.63 384.28L1568.63 384.51" stroke="hsl(237.5, 79.1%, 83.6%)" stroke-width="1.5"></path><path d="M1414.63 384.28L1430.74 562.09" stroke="hsl(237.5, 79.1%, 83.6%)" stroke-width="1.5"></path><path d="M1414.63 384.28L1555.61 512.77" stroke="hsl(237.5, 79.1%, 83.6%)" stroke-width="1.5"></path><path d="M1430.74 562.09L1430.74 562.09" stroke="hsl(237.5, 79.1%, 83.6%)" stroke-width="1.5"></path><path d="M1430.74 562.09L1555.61 512.77" stroke="hsl(237.5, 79.1%, 83.6%)" stroke-width="1.5"></path><path d="M1430.74 562.09L1455.79 711.51" stroke="hsl(237.5, 79.1%, 83.6%)" stroke-width="1.5"></path><path d="M1455.79 711.51L1455.79 711.51" stroke="hsl(237.5, 79.1%, 83.6%)" stroke-width="1.5"></path><path d="M1455.79 711.51L1567.24 688.45" stroke="hsl(237.5, 79.1%, 83.6%)" stroke-width="1.5"></path><path d="M1455.79 711.51L1311 654.24" stroke="hsl(237.5, 79.1%, 83.6%)" stroke-width="1.5"></path><path d="M1455.79 711.51L1555.61 512.77" stroke="hsl(237.5, 79.1%, 83.6%)" stroke-width="1.5"></path><path d="M1455.79 711.51L1251.41 512.34" stroke="hsl(237.5, 79.1%, 83.6%)" stroke-width="1.5"></path><path d="M1538.65 -112.11L1538.65 -112.11" stroke="hsl(237.5, 79.1%, 83.6%)" stroke-width="1.5"></path><path d="M1538.65 -112.11L1411.2 -56.84" stroke="hsl(237.5, 79.1%, 83.6%)" stroke-width="1.5"></path><path d="M1538.65 -112.11L1439.28 59.93" stroke="hsl(237.5, 79.1%, 83.6%)" stroke-width="1.5"></path><path d="M1551.65 102.96L1551.65 102.96" stroke="hsl(237.5, 79.1%, 83.6%)" stroke-width="1.5"></path><path d="M1551.65 102.96L1576.87 221.74" stroke="hsl(237.5, 79.1%, 83.6%)" stroke-width="1.5"></path><path d="M1576.87 221.74L1576.87 221.74" stroke="hsl(237.5, 79.1%, 83.6%)" stroke-width="1.5"></path><path d="M1576.87 221.74L1568.63 384.51" stroke="hsl(237.5, 79.1%, 83.6%)" stroke-width="1.5"></path><path d="M1576.87 221.74L1439.28 59.93" stroke="hsl(237.5, 79.1%, 83.6%)" stroke-width="1.5"></path><path d="M1576.87 221.74L1414.63 384.28" stroke="hsl(237.5, 79.1%, 83.6%)" stroke-width="1.5"></path><path d="M1576.87 221.74L1555.61 512.77" stroke="hsl(237.5, 79.1%, 83.6%)" stroke-width="1.5"></path><path d="M1568.63 384.51L1568.63 384.51" stroke="hsl(237.5, 79.1%, 83.6%)" stroke-width="1.5"></path><path d="M1568.63 384.51L1555.61 512.77" stroke="hsl(237.5, 79.1%, 83.6%)" stroke-width="1.5"></path><path d="M1555.61 512.77L1555.61 512.77" stroke="hsl(237.5, 79.1%, 83.6%)" stroke-width="1.5"></path><path d="M1555.61 512.77L1567.24 688.45" stroke="hsl(237.5, 79.1%, 83.6%)" stroke-width="1.5"></path><path d="M1567.24 688.45L1567.24 688.45" stroke="hsl(237.5, 79.1%, 83.6%)" stroke-width="1.5"></path><circle r="25" cx="1275.92" cy="192.85" fill="url(&quot;#SvgjsRadialGradient1009&quot;)"></circle><circle r="25" cx="1282.45" cy="343.81" fill="url(&quot;#SvgjsRadialGradient1009&quot;)"></circle><circle r="25" cx="1411.2" cy="-56.84" fill="url(&quot;#SvgjsRadialGradient1009&quot;)"></circle><circle r="5" cx="74.98" cy="511.91" fill="#aeb1f6"></circle><circle r="5" cx="106.83" cy="644.81" fill="#aeb1f6"></circle><circle r="5" cx="221.56" cy="490.46" fill="#aeb1f6"></circle><circle r="5" cx="200.01" cy="655.32" fill="#aeb1f6"></circle><circle r="5" cx="348.09" cy="539.23" fill="#aeb1f6"></circle><circle r="5" cx="373.87" cy="652.74" fill="#aeb1f6"></circle><circle r="5" cx="487.86" cy="508.64" fill="#aeb1f6"></circle><circle r="5" cx="562.25" cy="706.63" fill="#aeb1f6"></circle><circle r="5" cx="669.38" cy="385.97" fill="#aeb1f6"></circle><circle r="5" cx="645.25" cy="515.62" fill="#aeb1f6"></circle><circle r="5" cx="680.82" cy="655.05" fill="#aeb1f6"></circle><circle r="5" cx="861.79" cy="408.37" fill="#aeb1f6"></circle><circle r="5" cx="832.2" cy="672.5" fill="#aeb1f6"></circle><circle r="5" cx="971.6" cy="261.77" fill="#aeb1f6"></circle><circle r="5" cx="950.84" cy="684.3" fill="#aeb1f6"></circle><circle r="5" cx="1146.13" cy="246.54" fill="#aeb1f6"></circle><circle r="5" cx="1125.39" cy="340.73" fill="#aeb1f6"></circle><circle r="5" cx="1151.93" cy="512.83" fill="#aeb1f6"></circle><circle r="5" cx="1105.71" cy="711.94" fill="#aeb1f6"></circle><circle r="5" cx="1280.21" cy="-72.98" fill="#aeb1f6"></circle><circle r="5" cx="1303.3" cy="95.77" fill="#aeb1f6"></circle><circle r="5" cx="1251.41" cy="512.34" fill="#aeb1f6"></circle><circle r="5" cx="1311" cy="654.24" fill="#aeb1f6"></circle><circle r="5" cx="1439.28" cy="59.93" fill="#aeb1f6"></circle><circle r="5" cx="1437.86" cy="215" fill="#aeb1f6"></circle><circle r="5" cx="1414.63" cy="384.28" fill="#aeb1f6"></circle><circle r="5" cx="1430.74" cy="562.09" fill="#aeb1f6"></circle><circle r="5" cx="1455.79" cy="711.51" fill="#aeb1f6"></circle><circle r="5" cx="1538.65" cy="-112.11" fill="#aeb1f6"></circle><circle r="5" cx="1551.65" cy="102.96" fill="#aeb1f6"></circle><circle r="5" cx="1576.87" cy="221.74" fill="#aeb1f6"></circle><circle r="5" cx="1568.63" cy="384.51" fill="#aeb1f6"></circle><circle r="5" cx="1555.61" cy="512.77" fill="#aeb1f6"></circle><circle r="5" cx="1567.24" cy="688.45" fill="#aeb1f6"></circle></g><defs><mask id="SvgjsMask1008"><rect width="1440" height="560" fill="#ffffff"></rect></mask><radialGradient id="SvgjsRadialGradient1009"><stop stop-color="#ffffff" offset="0.1"></stop><stop stop-color="rgba(92, 98, 236, 1)" offset="0.2"></stop><stop stop-color="rgba(92, 98, 236, 0)" offset="1"></stop></radialGradient></defs></svg>