<svg xmlns="http://www.w3.org/2000/svg" version="1.1" xmlns:xlink="http://www.w3.org/1999/xlink" xmlns:svgjs="http://svgjs.dev/svgjs" width="1440" height="560" preserveAspectRatio="none" viewBox="0 0 1440 560"><g mask="url(&quot;#SvgjsMask1082&quot;)" fill="none"><path d="M538 423L537 179" stroke-width="10" stroke="url(&quot;#SvgjsLinearGradient1083&quot;)" stroke-linecap="round" class="Down"></path><path d="M30 249L29 610" stroke-width="10" stroke="url(&quot;#SvgjsLinearGradient1083&quot;)" stroke-linecap="round" class="Down"></path><path d="M288 490L287 891" stroke-width="10" stroke="url(&quot;#SvgjsLinearGradient1083&quot;)" stroke-linecap="round" class="Down"></path><path d="M305 162L304 346" stroke-width="8" stroke="url(&quot;#SvgjsLinearGradient1084&quot;)" stroke-linecap="round" class="Up"></path><path d="M129 133L128 485" stroke-width="10" stroke="url(&quot;#SvgjsLinearGradient1084&quot;)" stroke-linecap="round" class="Up"></path><path d="M226 114L225 -190" stroke-width="10" stroke="url(&quot;#SvgjsLinearGradient1084&quot;)" stroke-linecap="round" class="Up"></path><path d="M1169 82L1168 231" stroke-width="10" stroke="url(&quot;#SvgjsLinearGradient1084&quot;)" stroke-linecap="round" class="Up"></path><path d="M1312 376L1311 232" stroke-width="6" stroke="url(&quot;#SvgjsLinearGradient1084&quot;)" stroke-linecap="round" class="Up"></path><path d="M682 206L681 -129" stroke-width="8" stroke="url(&quot;#SvgjsLinearGradient1083&quot;)" stroke-linecap="round" class="Down"></path><path d="M613 336L612 606" stroke-width="8" stroke="url(&quot;#SvgjsLinearGradient1083&quot;)" stroke-linecap="round" class="Down"></path><path d="M1277 463L1276 221" stroke-width="6" stroke="url(&quot;#SvgjsLinearGradient1084&quot;)" stroke-linecap="round" class="Up"></path><path d="M938 547L937 363" stroke-width="10" stroke="url(&quot;#SvgjsLinearGradient1084&quot;)" stroke-linecap="round" class="Up"></path><path d="M131 442L130 168" stroke-width="6" stroke="url(&quot;#SvgjsLinearGradient1083&quot;)" stroke-linecap="round" class="Down"></path><path d="M889 203L888 447" stroke-width="8" stroke="url(&quot;#SvgjsLinearGradient1084&quot;)" stroke-linecap="round" class="Up"></path><path d="M67 495L66 355" stroke-width="8" stroke="url(&quot;#SvgjsLinearGradient1083&quot;)" stroke-linecap="round" class="Down"></path><path d="M994 272L993 -35" stroke-width="10" stroke="url(&quot;#SvgjsLinearGradient1084&quot;)" stroke-linecap="round" class="Up"></path><path d="M672 123L671 -80" stroke-width="8" stroke="url(&quot;#SvgjsLinearGradient1083&quot;)" stroke-linecap="round" class="Down"></path><path d="M1378 503L1377 150" stroke-width="6" stroke="url(&quot;#SvgjsLinearGradient1084&quot;)" stroke-linecap="round" class="Up"></path><path d="M202 63L201 477" stroke-width="6" stroke="url(&quot;#SvgjsLinearGradient1084&quot;)" stroke-linecap="round" class="Up"></path><path d="M483 520L482 896" stroke-width="8" stroke="url(&quot;#SvgjsLinearGradient1083&quot;)" stroke-linecap="round" class="Down"></path><path d="M1000 460L999 44" stroke-width="10" stroke="url(&quot;#SvgjsLinearGradient1083&quot;)" stroke-linecap="round" class="Down"></path><path d="M429 127L428 305" stroke-width="10" stroke="url(&quot;#SvgjsLinearGradient1083&quot;)" stroke-linecap="round" class="Down"></path><path d="M5 111L4 -226" stroke-width="8" stroke="url(&quot;#SvgjsLinearGradient1083&quot;)" stroke-linecap="round" class="Down"></path><path d="M80 356L79 39" stroke-width="10" stroke="url(&quot;#SvgjsLinearGradient1083&quot;)" stroke-linecap="round" class="Down"></path><path d="M1351 34L1350 -333" stroke-width="6" stroke="url(&quot;#SvgjsLinearGradient1083&quot;)" stroke-linecap="round" class="Down"></path><path d="M290 131L289 428" stroke-width="8" stroke="url(&quot;#SvgjsLinearGradient1083&quot;)" stroke-linecap="round" class="Down"></path><path d="M635 526L634 889" stroke-width="6" stroke="url(&quot;#SvgjsLinearGradient1083&quot;)" stroke-linecap="round" class="Down"></path><path d="M1121 244L1120 589" stroke-width="8" stroke="url(&quot;#SvgjsLinearGradient1084&quot;)" stroke-linecap="round" class="Up"></path><path d="M1419 117L1418 479" stroke-width="8" stroke="url(&quot;#SvgjsLinearGradient1083&quot;)" stroke-linecap="round" class="Down"></path><path d="M1028 374L1027 14" stroke-width="6" stroke="url(&quot;#SvgjsLinearGradient1084&quot;)" stroke-linecap="round" class="Up"></path><path d="M1388 469L1387 613" stroke-width="8" stroke="url(&quot;#SvgjsLinearGradient1084&quot;)" stroke-linecap="round" class="Up"></path><path d="M153 503L152 355" stroke-width="6" stroke="url(&quot;#SvgjsLinearGradient1083&quot;)" stroke-linecap="round" class="Down"></path><path d="M767 282L766 8" stroke-width="10" stroke="url(&quot;#SvgjsLinearGradient1083&quot;)" stroke-linecap="round" class="Down"></path><path d="M746 168L745 513" stroke-width="8" stroke="url(&quot;#SvgjsLinearGradient1083&quot;)" stroke-linecap="round" class="Down"></path><path d="M1264 1L1263 -205" stroke-width="6" stroke="url(&quot;#SvgjsLinearGradient1083&quot;)" stroke-linecap="round" class="Down"></path><path d="M362 31L361 -270" stroke-width="10" stroke="url(&quot;#SvgjsLinearGradient1083&quot;)" stroke-linecap="round" class="Down"></path></g><defs><mask id="SvgjsMask1082"><rect width="1440" height="560" fill="#ffffff"></rect></mask><linearGradient x1="0%" y1="0%" x2="0%" y2="100%" id="SvgjsLinearGradient1083"><stop stop-color="rgba(92, 98, 236, 0)" offset="0"></stop><stop stop-color="rgba(92, 98, 236, 1)" offset="1"></stop></linearGradient><linearGradient x1="0%" y1="100%" x2="0%" y2="0%" id="SvgjsLinearGradient1084"><stop stop-color="rgba(92, 98, 236, 0)" offset="0"></stop><stop stop-color="rgba(92, 98, 236, 1)" offset="1"></stop></linearGradient></defs></svg>