<svg xmlns="http://www.w3.org/2000/svg" version="1.1" xmlns:xlink="http://www.w3.org/1999/xlink" xmlns:svgjs="http://svgjs.dev/svgjs" width="1440" height="560" preserveAspectRatio="none" viewBox="0 0 1440 560"><g mask="url(&quot;#SvgjsMask1031&quot;)" fill="none"><path d="M1464 560L0 560 L0 463.01Q30.94 421.95, 72 452.89Q146.79 407.68, 192 482.47Q245.41 415.88, 312 469.29Q361.87 399.16, 432 449.03Q508.48 405.51, 552 481.99Q605.78 415.77, 672 469.55Q701.53 427.08, 744 456.6Q815.67 408.27, 864 479.94Q918.35 414.29, 984 468.64Q1038.24 402.88, 1104 457.12Q1177.67 410.8, 1224 484.47Q1277.85 418.32, 1344 472.16Q1398.2 406.37, 1464 460.57z" fill="#182f5d"></path><path d="M1536 560L0 560 L0 490.01Q40.44 458.44, 72 498.88Q122.21 429.09, 192 479.29Q267.78 435.07, 312 510.85Q340.39 467.24, 384 495.63Q436.02 427.65, 504 479.68Q555.5 459.18, 576 510.67Q627.53 442.2, 696 493.73Q726.13 451.86, 768 481.99Q840.3 434.3, 888 506.6Q918.54 465.14, 960 495.68Q987 450.68, 1032 477.67Q1107.47 433.14, 1152 508.61Q1201.85 438.46, 1272 488.31Q1319.63 463.94, 1344 511.58Q1363.08 458.66, 1416 477.74Q1483.66 425.4, 1536 493.07z" fill="#25467d"></path><path d="M1488 560L0 560 L0 539.1Q47.23 466.33, 120 513.56Q161.83 483.38, 192 525.21Q258.13 471.34, 312 537.47Q336.02 489.5, 384 513.52Q426.38 483.9, 456 526.28Q497.15 495.43, 528 536.58Q552.45 489.03, 600 513.48Q642.15 483.63, 672 525.79Q716.59 498.38, 744 542.97Q786.54 465.51, 864 508.05Q908.23 480.28, 936 524.52Q1002.48 471, 1056 537.47Q1076.39 485.87, 1128 506.26Q1171.02 477.28, 1200 520.3Q1242.03 490.33, 1272 532.36Q1294.19 482.55, 1344 504.74Q1387.82 476.56, 1416 520.38Q1461.55 493.93, 1488 539.48z" fill="#356cb1"></path><path d="M1464 560L0 560 L0 551.25Q28.59 507.84, 72 536.42Q146.27 490.69, 192 564.97Q243.74 496.71, 312 548.45Q340.13 504.59, 384 532.72Q457.65 486.37, 504 560.02Q533.2 517.22, 576 546.43Q605.78 504.21, 648 534Q720.57 486.57, 768 559.14Q798.95 518.09, 840 549.04Q891.94 480.98, 960 532.93Q1037.55 490.47, 1080 568.02Q1108.43 524.45, 1152 552.88Q1204.37 485.25, 1272 537.61Q1346.63 492.24, 1392 566.86Q1419.01 521.88, 1464 548.89z" fill="white"></path></g><defs><mask id="SvgjsMask1031"><rect width="1440" height="560" fill="#ffffff"></rect></mask></defs></svg>