<svg xmlns="http://www.w3.org/2000/svg" xmlns:xlink="http://www.w3.org/1999/xlink" viewBox="0,0,256,256" width="55px" height="55px" fill-rule="nonzero"><g fill="#ffffff" fill-rule="nonzero" stroke="none" stroke-width="1" stroke-linecap="butt" stroke-linejoin="miter" stroke-miterlimit="10" stroke-dasharray="" stroke-dashoffset="0" font-family="none" font-weight="none" font-size="none" text-anchor="none" style="mix-blend-mode: normal"><g transform="scale(3.55556,3.55556)"><path d="M36,12c-13.255,0 -24,10.745 -24,24c0,13.255 10.745,24 24,24c13.255,0 24,-10.745 24,-24c0,-13.255 -10.745,-24 -24,-24zM36,20c8.837,0 16,7.163 16,16c0,8.837 -7.163,16 -16,16c-8.837,0 -16,-7.163 -16,-16c0,-8.837 7.163,-16 16,-16zM44.13281,28.21094c-0.45675,-0.05264 -1.03063,0.07173 -1.67187,0.30273c-1.172,0.422 -16.15258,6.78239 -17.01758,7.15039c-0.82,0.349 -1.5957,0.72925 -1.5957,1.28125c0,0.387 0.23028,0.60408 0.86328,0.83008c0.659,0.235 2.31883,0.73781 3.29883,1.00781c0.944,0.26 2.01714,0.03416 2.61914,-0.33984c0.638,-0.397 8.0052,-5.32581 8.5332,-5.75781c0.528,-0.432 0.94958,0.12269 0.51758,0.55469c-0.432,0.432 -5.4873,5.33953 -6.1543,6.01953c-0.81,0.825 -0.23636,1.67848 0.30664,2.02148c0.62,0.391 5.08191,3.38328 5.75391,3.86328c0.672,0.481 1.35156,0.69727 1.97656,0.69727c0.625,0 0.95267,-0.82139 1.26367,-1.77539c0.363,-1.116 2.0693,-12.2445 2.2793,-14.4375c0.063,-0.664 -0.14564,-1.10769 -0.55664,-1.30469c-0.12425,-0.05975 -0.26377,-0.09573 -0.41602,-0.11328z"></path></g></g></svg>